<svg width="49" height="48" viewBox="0 0 49 48" fill="none" xmlns="http://www.w3.org/2000/svg">
<circle cx="24.3429" cy="29.657" r="5.25714" fill="#FEEB29"/>
<ellipse cx="25" cy="38.2" rx="5.91429" ry="3.28571" fill="#FEEB29"/>
<path fill-rule="evenodd" clip-rule="evenodd" d="M44.8712 36.6205C44.8712 38.346 43.4678 39.7378 41.7424 39.7378H33.1153C32.7012 37.5626 31.4243 35.6313 29.5839 34.389C31.0792 33.0661 31.9305 31.1682 31.9305 29.1667C31.9305 28.2234 31.7464 27.3147 31.3783 26.452C32.7127 25.7262 34.208 25.3477 35.7149 25.3477C40.7647 25.3477 44.8712 29.4887 44.8712 34.573V36.6205ZM20.117 39.7493C20.7957 37.6213 22.7857 36.1604 25.0057 36.1604C27.2258 36.1604 29.2158 37.6328 29.8944 39.7493H20.117ZM16.8847 39.7493H8.25756C6.53213 39.7493 5.14028 38.346 5.14028 36.632V31.8814C5.14028 26.7971 9.24681 22.6549 14.2966 22.6549C16.2866 22.6549 18.2535 23.3221 19.8409 24.5425C18.7137 25.8182 18.0925 27.4643 18.0925 29.177C18.0925 31.1797 18.9437 33.0777 20.4391 34.3993C18.5871 35.6313 17.2988 37.5753 16.8847 39.7493ZM14.2851 9.15169C17.1148 9.15169 19.4153 11.4753 19.4153 14.328C19.4153 17.1807 17.1148 19.5043 14.2851 19.5043C11.4554 19.5043 9.15478 17.1807 9.15478 14.328C9.15478 11.4753 11.4554 9.15169 14.2851 9.15169ZM25.0057 25.3477C27.0993 25.3477 28.8017 27.0605 28.8017 29.1667C28.8017 31.2717 27.0993 32.9856 25.0057 32.9856C22.9122 32.9856 21.2098 31.2717 21.2098 29.1667C21.2098 27.0605 22.9122 25.3477 25.0057 25.3477ZM35.7264 11.8549C38.5561 11.8549 40.8567 14.1784 40.8567 17.0312C40.8567 19.8839 38.5561 22.2074 35.7264 22.2074C32.8967 22.2074 30.5961 19.8839 30.5961 17.0312C30.5961 14.1784 32.8967 11.8549 35.7264 11.8549ZM41.0292 23.4153C42.9157 21.8279 43.997 19.5044 43.997 17.0312C43.997 12.4405 40.293 8.70202 35.7264 8.70202C31.1598 8.70202 27.4558 12.4405 27.4558 17.0312C27.4558 19.5159 28.5371 21.8279 30.4236 23.4153C30.113 23.5637 29.8139 23.7259 29.5264 23.8973C28.2725 22.8057 26.6621 22.2075 25.0057 22.2075C24.143 22.2075 23.2918 22.3674 22.4981 22.6792C21.6239 21.8843 20.6461 21.2298 19.5879 20.7122C21.4744 19.1248 22.5556 16.8012 22.5556 14.3281C22.5556 9.73843 18.8517 6 14.2851 6C9.72993 6 6.0145 9.73843 6.0145 14.3281C6.0145 16.8012 7.09577 19.1248 8.98224 20.7122C4.73768 22.7597 2 27.1308 2 31.8699V37.6904C2 40.5661 4.33508 42.8897 7.1993 42.8897H42.8007C45.6764 42.8897 48 40.5546 48 37.6904V34.5731C48.0115 29.8339 45.2738 25.4628 41.0292 23.4153Z" fill="#242424"/>
</svg>
