<svg width="24" height="24" viewBox="0 0 24 24" fill="none" xmlns="http://www.w3.org/2000/svg">
<path d="M4.40032 12.4998C4.40032 12.1684 4.66855 11.9002 4.99993 11.9002C5.3313 11.9002 5.59953 12.1684 5.59953 12.4998V19.4002H9.90032V14.4998C9.90032 14.1684 10.1686 13.9002 10.4999 13.9002H13.4999C13.8313 13.9002 14.0995 14.1684 14.0995 14.4998V19.4002H18.4003V12.4998C18.4003 12.1684 18.6686 11.9002 18.9999 11.9002C19.3313 11.9002 19.5995 12.1684 19.5995 12.4998V19.9998C19.5995 20.3311 19.3313 20.5994 18.9999 20.5994H13.4999C13.1686 20.5994 12.9003 20.3311 12.9003 19.9998V15.0994H11.0995V19.9998C11.0995 20.3311 10.8313 20.5994 10.4999 20.5994H4.99993C4.66855 20.5994 4.40032 20.3311 4.40032 19.9998V12.4998ZM12.3779 3.53395L20.3779 10.0339C20.6349 10.2428 20.6744 10.6205 20.4657 10.8777C20.2569 11.1348 19.8792 11.1742 19.622 10.9656L11.9999 4.77223L4.37786 10.9656C4.12068 11.1742 3.74298 11.1348 3.53411 10.8777C3.32545 10.6205 3.36492 10.2428 3.622 10.0339L7.40032 6.96364V4.99977C7.40032 4.6684 7.66855 4.40016 7.99993 4.40016C8.3313 4.40016 8.59953 4.6684 8.59953 4.99977V5.98903L11.622 3.53395C11.8325 3.362 12.1462 3.34601 12.3779 3.53395Z" fill="#108389"/>
</svg>
