<svg width="24" height="24" viewBox="0 0 24 24" fill="none" xmlns="http://www.w3.org/2000/svg">
<path d="M12.5237 3.77784C12.1828 3.68056 11.8216 3.68056 11.4808 3.77784L5.53878 5.47376C5.3368 8.59786 5.79294 11.7602 6.88801 14.4211C7.98357 17.0833 9.70129 19.2067 12.0022 20.3323C14.3032 19.2067 16.0209 17.0833 17.1164 14.4211C18.2115 11.7602 18.6677 8.59785 18.4657 5.47374L12.5237 3.77784ZM11.1514 2.62392C11.7075 2.4652 12.2969 2.4652 12.853 2.62392L18.8654 4.33992C19.3035 4.46494 19.6261 4.85045 19.6578 5.31556C19.8831 8.62289 19.4094 12.0027 18.2262 14.8778C17.0432 17.7522 15.1336 20.1598 12.4665 21.4408C12.1733 21.5816 11.8312 21.5816 11.5379 21.4408C8.87088 20.1598 6.96122 17.7523 5.7783 14.8778C4.59511 12.0027 4.12137 8.6229 4.34664 5.31558C4.37833 4.85046 4.70097 4.46496 5.13902 4.33993L11.1514 2.62392ZM15.4291 8.58115C15.6633 8.81556 15.6632 9.19546 15.4288 9.42968L11.4255 13.4298C11.1912 13.6639 10.8116 13.6639 10.5773 13.4298L8.57566 11.4297C8.34126 11.1955 8.34111 10.8156 8.57533 10.5812C8.80955 10.3468 9.18945 10.3467 9.42386 10.5809L11.0014 12.1572L14.5806 8.58082C14.815 8.3466 15.1949 8.34675 15.4291 8.58115Z" fill="#108389"/>
</svg>
