<svg width="40" height="40" viewBox="0 0 40 40" fill="none" xmlns="http://www.w3.org/2000/svg">
<path fill-rule="evenodd" clip-rule="evenodd" d="M3.43475 19.5C3.43475 10.3643 10.8643 2.93475 20 2.93475C29.1357 2.93475 36.5653 10.3643 36.5653 19.5C36.5653 28.6357 29.1357 36.0643 20 36.0643C10.8643 36.0643 3.43475 28.6357 3.43475 19.5ZM0.5 19.5C0.5 30.2542 9.24575 39 20 39C30.7542 39 39.5 30.2542 39.5 19.5C39.5 8.74575 30.7542 0 20 0C9.24575 0 0.5 8.74575 0.5 19.5ZM21.8817 26.0423C22.4569 25.8181 22.9249 25.4866 23.2564 25.0673C23.5977 24.6286 23.7732 24.1118 23.7829 23.5454C23.7829 23.0003 23.6172 22.5314 23.2857 22.1521C22.9932 21.8108 22.5642 21.5174 22.0182 21.2843C21.6964 21.1469 21.3357 21.0299 20.9457 20.9138L20.8969 26.2958C21.2479 26.2373 21.5892 26.1593 21.8817 26.0423ZM16.7532 16.3703C16.9482 16.6921 17.2114 16.9553 17.5527 17.1796C17.8452 17.3736 18.1767 17.5306 18.5179 17.6671L18.5667 12.8116C18.5185 12.8254 18.4679 12.8379 18.417 12.8505C18.3237 12.8737 18.2294 12.897 18.1474 12.9286C17.6209 13.1431 17.2017 13.4551 16.9092 13.8451C16.6167 14.2439 16.4607 14.7128 16.4607 15.2101C16.4412 15.6488 16.5484 16.0388 16.7532 16.3703ZM25.3917 20.2313C25.8499 20.6408 26.2009 21.1186 26.4544 21.6646C26.7079 22.2096 26.8347 22.8443 26.8152 23.5844C26.8054 24.6383 26.5422 25.5646 26.0157 26.3251C25.4989 27.0846 24.7189 27.6891 23.7147 28.1191C22.9054 28.4594 21.9402 28.6641 20.8482 28.7431L20.8384 30.2924C20.8287 30.9661 20.2827 31.5023 19.6099 31.5023H19.6002C18.9274 31.4926 18.3814 30.9368 18.3912 30.2641L18.4107 28.6641C17.5917 28.5578 16.8312 28.3726 16.1584 28.0986C15.1249 27.6706 14.3059 27.0271 13.7307 26.1876C13.5357 25.9049 13.3699 25.5831 13.2334 25.2516C13.0872 24.8821 13.1359 24.4628 13.3699 24.1206C13.6234 23.7501 14.0427 23.5268 14.4912 23.5268H14.8227C15.3297 23.5268 15.8074 23.8388 16.0219 24.3263C16.1097 24.5408 16.2364 24.7358 16.3729 24.9211C16.7434 25.4174 17.2602 25.7888 17.8842 26.0326C18.0012 26.0716 18.1268 26.1019 18.2525 26.1323C18.3153 26.1474 18.3782 26.1626 18.4399 26.1788L18.4984 20.2898L18.1182 20.1923C16.6069 19.8218 15.3979 19.2456 14.5399 18.4763C13.7112 17.7451 13.3114 16.7701 13.3212 15.5016C13.3212 14.4486 13.5844 13.5623 14.1499 12.7814C14.7154 11.9926 15.5149 11.3686 16.5094 10.9298C17.1432 10.6568 17.8354 10.4706 18.5862 10.3643L18.6057 8.7361C18.6154 8.06335 19.1614 7.5271 19.8342 7.5271H19.8439C20.5167 7.53685 21.0627 8.0926 21.0529 8.76437L21.0432 10.3049C21.9499 10.3936 22.7787 10.5983 23.5002 10.9298C24.4654 11.3783 25.2162 11.9926 25.7524 12.7726L25.761 12.7846C25.8069 12.8488 25.8522 12.9122 25.8889 12.9773C26.1424 13.3956 26.1424 13.8938 25.9084 14.3131C25.6744 14.7314 25.2454 14.9858 24.7579 14.9858H24.4752C24.0364 14.9858 23.6172 14.7128 23.3637 14.2439C23.1687 13.8938 22.9054 13.5906 22.5642 13.3381C22.1352 13.0358 21.6184 12.8311 21.0139 12.7238L20.9652 18.3301L21.5404 18.4656C22.3302 18.6518 23.0712 18.8858 23.7244 19.1783C24.3679 19.4611 24.9237 19.8218 25.3917 20.2313Z" fill="#C1BFB8"/>
<mask id="mask0_1672_3663" style="mask-type:luminance" maskUnits="userSpaceOnUse" x="0" y="0" width="40" height="39">
<path fill-rule="evenodd" clip-rule="evenodd" d="M3.43475 19.5C3.43475 10.3643 10.8643 2.93475 20 2.93475C29.1357 2.93475 36.5653 10.3643 36.5653 19.5C36.5653 28.6357 29.1357 36.0643 20 36.0643C10.8643 36.0643 3.43475 28.6357 3.43475 19.5ZM0.5 19.5C0.5 30.2542 9.24575 39 20 39C30.7542 39 39.5 30.2542 39.5 19.5C39.5 8.74575 30.7542 0 20 0C9.24575 0 0.5 8.74575 0.5 19.5ZM21.8817 26.0423C22.4569 25.8181 22.9249 25.4866 23.2564 25.0673C23.5977 24.6286 23.7732 24.1118 23.7829 23.5454C23.7829 23.0003 23.6172 22.5314 23.2857 22.1521C22.9932 21.8108 22.5642 21.5174 22.0182 21.2843C21.6964 21.1469 21.3357 21.0299 20.9457 20.9138L20.8969 26.2958C21.2479 26.2373 21.5892 26.1593 21.8817 26.0423ZM16.7532 16.3703C16.9482 16.6921 17.2114 16.9553 17.5527 17.1796C17.8452 17.3736 18.1767 17.5306 18.5179 17.6671L18.5667 12.8116C18.5185 12.8254 18.4679 12.8379 18.417 12.8505C18.3237 12.8737 18.2294 12.897 18.1474 12.9286C17.6209 13.1431 17.2017 13.4551 16.9092 13.8451C16.6167 14.2439 16.4607 14.7128 16.4607 15.2101C16.4412 15.6488 16.5484 16.0388 16.7532 16.3703ZM25.3917 20.2313C25.8499 20.6408 26.2009 21.1186 26.4544 21.6646C26.7079 22.2096 26.8347 22.8443 26.8152 23.5844C26.8054 24.6383 26.5422 25.5646 26.0157 26.3251C25.4989 27.0846 24.7189 27.6891 23.7147 28.1191C22.9054 28.4594 21.9402 28.6641 20.8482 28.7431L20.8384 30.2924C20.8287 30.9661 20.2827 31.5023 19.6099 31.5023H19.6002C18.9274 31.4926 18.3814 30.9368 18.3912 30.2641L18.4107 28.6641C17.5917 28.5578 16.8312 28.3726 16.1584 28.0986C15.1249 27.6706 14.3059 27.0271 13.7307 26.1876C13.5357 25.9049 13.3699 25.5831 13.2334 25.2516C13.0872 24.8821 13.1359 24.4628 13.3699 24.1206C13.6234 23.7501 14.0427 23.5268 14.4912 23.5268H14.8227C15.3297 23.5268 15.8074 23.8388 16.0219 24.3263C16.1097 24.5408 16.2364 24.7358 16.3729 24.9211C16.7434 25.4174 17.2602 25.7888 17.8842 26.0326C18.0012 26.0716 18.1268 26.1019 18.2525 26.1323C18.3153 26.1474 18.3782 26.1626 18.4399 26.1788L18.4984 20.2898L18.1182 20.1923C16.6069 19.8218 15.3979 19.2456 14.5399 18.4763C13.7112 17.7451 13.3114 16.7701 13.3212 15.5016C13.3212 14.4486 13.5844 13.5623 14.1499 12.7814C14.7154 11.9926 15.5149 11.3686 16.5094 10.9298C17.1432 10.6568 17.8354 10.4706 18.5862 10.3643L18.6057 8.7361C18.6154 8.06335 19.1614 7.5271 19.8342 7.5271H19.8439C20.5167 7.53685 21.0627 8.0926 21.0529 8.76437L21.0432 10.3049C21.9499 10.3936 22.7787 10.5983 23.5002 10.9298C24.4654 11.3783 25.2162 11.9926 25.7524 12.7726L25.761 12.7846C25.8069 12.8488 25.8522 12.9122 25.8889 12.9773C26.1424 13.3956 26.1424 13.8938 25.9084 14.3131C25.6744 14.7314 25.2454 14.9858 24.7579 14.9858H24.4752C24.0364 14.9858 23.6172 14.7128 23.3637 14.2439C23.1687 13.8938 22.9054 13.5906 22.5642 13.3381C22.1352 13.0358 21.6184 12.8311 21.0139 12.7238L20.9652 18.3301L21.5404 18.4656C22.3302 18.6518 23.0712 18.8858 23.7244 19.1783C24.3679 19.4611 24.9237 19.8218 25.3917 20.2313Z" fill="white"/>
</mask>
<g mask="url(#mask0_1672_3663)">
<rect x="-91.4286" y="-91.6781" width="222.857" height="222.857" rx="20" fill="#C1BFB8"/>
</g>
</svg>
