<svg width="24" height="24" viewBox="0 0 24 24" fill="none" xmlns="http://www.w3.org/2000/svg">
<path d="M11.9997 5.40039C15.8494 5.40039 19.2321 7.33654 21.069 10.248C21.7439 11.3177 21.7439 12.6823 21.069 13.752C19.2321 16.6635 15.8494 18.5996 11.9997 18.5996C8.15002 18.5996 4.76727 16.6634 2.93035 13.752C2.25564 12.6823 2.25564 11.3177 2.93035 10.248C4.76727 7.33658 8.15002 5.40045 11.9997 5.40039ZM11.9997 6.59961C8.55269 6.59967 5.55819 8.33336 3.94598 10.8887C3.51799 11.5672 3.51799 12.4328 3.94598 13.1113C5.55819 15.6666 8.55269 17.4003 11.9997 17.4004C15.4468 17.4004 18.4421 15.6667 20.0544 13.1113C20.4821 12.433 20.4821 11.567 20.0544 10.8887C18.4421 8.33332 15.4468 6.59961 11.9997 6.59961ZM14.4001 12C14.4001 11.5547 14.2764 11.1396 14.0651 10.7822L10.7819 14.0654C11.1392 14.2767 11.5544 14.4004 11.9997 14.4004C13.3252 14.4004 14.4001 13.3255 14.4001 12ZM9.60027 12C9.60027 12.4448 9.72249 12.8597 9.93328 13.2168L13.2165 9.93359C12.8594 9.72282 12.4445 9.59961 11.9997 9.59961C10.6743 9.5997 9.60027 10.6746 9.60027 12ZM15.6003 12C15.6003 13.9882 13.9879 15.5996 11.9997 15.5996C11.0058 15.5996 10.1046 15.1967 9.45379 14.5459C8.80302 13.8951 8.40008 12.9939 8.40008 12C8.40008 10.0118 10.0115 8.40048 11.9997 8.40039C12.9936 8.40039 13.8948 8.80334 14.5456 9.4541C15.1964 10.1049 15.6003 11.0061 15.6003 12Z" fill="#108389"/>
</svg>
