<svg width="24" height="24" viewBox="0 0 24 24" fill="none" xmlns="http://www.w3.org/2000/svg">
<path d="M9.69229 3.00406C10.9576 1.70828 13.0422 1.70828 14.3075 3.00406L14.6972 3.40445C15.0841 3.80068 15.6171 4.02042 16.1708 4.01383L16.7294 4.00797C18.5404 3.98646 20.0136 5.45969 19.9921 7.27066L19.9862 7.82926C19.9796 8.38302 20.1994 8.91599 20.5956 9.30289L20.996 9.69254C22.2918 10.9579 22.2918 13.0424 20.996 14.3078L20.5956 14.6974C20.1994 15.0843 19.9796 15.6173 19.9862 16.1711L19.9921 16.7296C20.0136 18.5406 18.5404 20.0139 16.7294 19.9923L16.1708 19.9865C15.6171 19.9799 15.0841 20.1996 14.6972 20.5959L14.3075 20.9963C13.0422 22.292 10.9576 22.292 9.69229 20.9963L9.30265 20.5959C8.91574 20.1996 8.38277 19.9799 7.82901 19.9865L7.27042 19.9923C5.45944 20.0139 3.98621 18.5406 4.00772 16.7296L4.01358 16.1711C4.02018 15.6173 3.80044 15.0843 3.40421 14.6974L3.00382 14.3078C1.70804 13.0424 1.70804 10.9579 3.00382 9.69254L3.40421 9.30289C3.80044 8.91599 4.02018 8.38302 4.01358 7.82926L4.00772 7.27066C3.98621 5.45968 5.45944 3.98646 7.27042 4.00797L7.82901 4.01383C8.38277 4.02042 8.91574 3.80068 9.30265 3.40445L9.69229 3.00406ZM13.4491 3.84293C12.6546 3.02924 11.3452 3.02924 10.5507 3.84293L10.161 4.24234C9.54497 4.87328 8.6971 5.22441 7.81534 5.21402L7.25577 5.20719C6.11897 5.19391 5.19366 6.11921 5.20694 7.25602L5.21378 7.81559C5.22416 8.69734 4.87303 9.54521 4.2421 10.1613L3.84269 10.5509C3.029 11.3455 3.029 12.6548 3.84269 13.4494L4.2421 13.839C4.87303 14.4551 5.22416 15.303 5.21378 16.1847L5.20694 16.7443C5.19366 17.8811 6.11897 18.8064 7.25577 18.7931L7.81534 18.7863C8.6971 18.7759 9.54497 19.127 10.161 19.758L10.5507 20.1574C11.3452 20.9711 12.6546 20.9711 13.4491 20.1574L13.8388 19.758C14.4549 19.127 15.3027 18.7759 16.1845 18.7863L16.7441 18.7931C17.8809 18.8064 18.8062 17.8811 18.7929 16.7443L18.786 16.1847C18.7757 15.303 19.1268 14.4551 19.7577 13.839L20.1571 13.4494C20.9708 12.6548 20.9708 11.3455 20.1571 10.5509L19.7577 10.1613C19.1268 9.54521 18.7757 8.69734 18.786 7.81559L18.7929 7.25602C18.8062 6.11921 17.8809 5.19391 16.7441 5.20719L16.1845 5.21402C15.3027 5.22441 14.4549 4.87328 13.8388 4.24234L13.4491 3.84293Z" fill="#108389"/>
<path d="M14.5502 14.2124C14.5502 13.9269 14.4806 13.7284 14.3803 13.5777C14.2761 13.4212 14.1137 13.2795 13.8774 13.1499C13.5359 12.9628 13.1008 12.8336 12.599 12.7173V15.3267C12.6215 15.3249 12.644 15.3239 12.6664 15.3218C13.2653 15.2646 13.7692 15.098 14.1049 14.8755C14.4348 14.6569 14.5501 14.4278 14.5502 14.2124ZM15.7504 14.2124C15.7503 14.9513 15.3179 15.5121 14.768 15.8765C14.2237 16.2371 13.5146 16.447 12.7807 16.5171C12.7207 16.5229 12.66 16.5259 12.599 16.5298V17.7749C12.599 18.1061 12.3306 18.3753 11.9994 18.3755C11.6681 18.3755 11.3988 18.1063 11.3988 17.7749V16.4869C10.3088 16.3407 9.20309 15.8947 8.41837 15.0445C8.19365 14.801 8.2091 14.4216 8.45255 14.1968C8.69599 13.9721 9.07544 13.9867 9.3002 14.23C9.82133 14.7947 10.5892 15.1374 11.3988 15.274V12.4654C10.7705 12.3363 10.1076 12.1805 9.57169 11.9195C9.2224 11.7493 8.88686 11.5173 8.63907 11.1841C8.38452 10.8417 8.25043 10.4294 8.2504 9.95365C8.2504 9.25206 8.60241 8.67669 9.10782 8.27201C9.60546 7.87363 10.2655 7.62376 10.9711 7.52201C11.1107 7.50188 11.2535 7.48869 11.3988 7.48001V6.22513C11.3988 5.89376 11.6681 5.62552 11.9994 5.62552C12.3306 5.62578 12.599 5.89392 12.599 6.22513V7.53958C13.5915 7.69641 14.6124 8.12479 15.477 8.89505C15.7244 9.11551 15.7463 9.49531 15.5258 9.74271C15.3053 9.98972 14.9264 10.0117 14.6791 9.79154C14.0531 9.23369 13.3199 8.90372 12.599 8.75833V11.4859C13.2367 11.6227 13.9076 11.7982 14.4535 12.0972C14.8077 12.2913 15.138 12.5519 15.3783 12.9126C15.6224 13.2791 15.7504 13.7135 15.7504 14.2124ZM9.44962 9.95365C9.44965 10.1903 9.51216 10.3475 9.60196 10.4683C9.69869 10.5984 9.85576 10.7238 10.0971 10.8413C10.4466 11.0116 10.8887 11.1263 11.3988 11.2369V8.68216C11.3119 8.68892 11.226 8.6974 11.142 8.70951C10.5933 8.78866 10.1498 8.97573 9.85782 9.20951C9.57371 9.43706 9.44962 9.69047 9.44962 9.95365Z" fill="#108389"/>
</svg>
