<svg width="24" height="24" viewBox="0 0 24 24" fill="none" xmlns="http://www.w3.org/2000/svg">
<path d="M7.2998 17.0498C7.2997 16.8567 7.14334 16.7003 6.9502 16.7002H5.0498C4.85666 16.7003 4.7003 16.8567 4.7002 17.0498V18.9502C4.7003 19.1433 4.85666 19.2997 5.0498 19.2998H6.9502C7.14334 19.2997 7.2997 19.1433 7.2998 18.9502V17.0498ZM13.2998 17.0498C13.2997 16.8567 13.1433 16.7003 12.9502 16.7002H11.0498C10.8567 16.7003 10.7003 16.8567 10.7002 17.0498V18.9502C10.7003 19.1433 10.8567 19.2997 11.0498 19.2998H12.9502C13.1433 19.2997 13.2997 19.1433 13.2998 18.9502V17.0498ZM19.2998 17.0498C19.2997 16.8567 19.1433 16.7003 18.9502 16.7002H17.0498C16.8567 16.7003 16.7003 16.8567 16.7002 17.0498V18.9502C16.7003 19.1433 16.8567 19.2997 17.0498 19.2998H18.9502C19.1433 19.2997 19.2997 19.1433 19.2998 18.9502V17.0498ZM7.2998 11.0498C7.2997 10.8567 7.14334 10.7003 6.9502 10.7002H5.0498C4.85666 10.7003 4.7003 10.8567 4.7002 11.0498V12.9502C4.7003 13.1433 4.85666 13.2997 5.0498 13.2998H6.9502C7.14334 13.2997 7.2997 13.1433 7.2998 12.9502V11.0498ZM13.2998 11.0498C13.2997 10.8567 13.1433 10.7003 12.9502 10.7002H11.0498C10.8567 10.7003 10.7003 10.8567 10.7002 11.0498V12.9502C10.7003 13.1433 10.8567 13.2997 11.0498 13.2998H12.9502C13.1433 13.2997 13.2997 13.1433 13.2998 12.9502V11.0498ZM19.2998 11.0498C19.2997 10.8567 19.1433 10.7003 18.9502 10.7002H17.0498C16.8567 10.7003 16.7003 10.8567 16.7002 11.0498V12.9502C16.7003 13.1433 16.8567 13.2997 17.0498 13.2998H18.9502C19.1433 13.2997 19.2997 13.1433 19.2998 12.9502V11.0498ZM7.2998 5.0498C7.2997 4.85666 7.14334 4.7003 6.9502 4.7002H5.0498C4.85666 4.7003 4.7003 4.85666 4.7002 5.0498V6.9502C4.7003 7.14334 4.85666 7.2997 5.0498 7.2998H6.9502C7.14334 7.2997 7.2997 7.14334 7.2998 6.9502V5.0498ZM13.2998 5.0498C13.2997 4.85666 13.1433 4.7003 12.9502 4.7002H11.0498C10.8567 4.7003 10.7003 4.85666 10.7002 5.0498V6.9502C10.7003 7.14334 10.8567 7.2997 11.0498 7.2998H12.9502C13.1433 7.2997 13.2997 7.14334 13.2998 6.9502V5.0498ZM19.2998 5.0498C19.2997 4.85666 19.1433 4.7003 18.9502 4.7002H17.0498C16.8567 4.7003 16.7003 4.85666 16.7002 5.0498V6.9502C16.7003 7.14334 16.8567 7.2997 17.0498 7.2998H18.9502C19.1433 7.2997 19.2997 7.14334 19.2998 6.9502V5.0498ZM8.2002 18.9502C8.20009 19.6404 7.6404 20.2001 6.9502 20.2002H5.0498C4.3596 20.2001 3.79991 19.6404 3.7998 18.9502V17.0498C3.79991 16.3596 4.3596 15.7999 5.0498 15.7998H6.9502C7.6404 15.7999 8.20009 16.3596 8.2002 17.0498V18.9502ZM14.2002 18.9502C14.2001 19.6404 13.6404 20.2001 12.9502 20.2002H11.0498C10.3596 20.2001 9.79991 19.6404 9.7998 18.9502V17.0498C9.79991 16.3596 10.3596 15.7999 11.0498 15.7998H12.9502C13.6404 15.7999 14.2001 16.3596 14.2002 17.0498V18.9502ZM20.2002 18.9502C20.2001 19.6404 19.6404 20.2001 18.9502 20.2002H17.0498C16.3596 20.2001 15.7999 19.6404 15.7998 18.9502V17.0498C15.7999 16.3596 16.3596 15.7999 17.0498 15.7998H18.9502C19.6404 15.7999 20.2001 16.3596 20.2002 17.0498V18.9502ZM8.2002 12.9502C8.20009 13.6404 7.6404 14.2001 6.9502 14.2002H5.0498C4.3596 14.2001 3.79991 13.6404 3.7998 12.9502V11.0498C3.79991 10.3596 4.3596 9.79991 5.0498 9.7998H6.9502C7.6404 9.79991 8.20009 10.3596 8.2002 11.0498V12.9502ZM14.2002 12.9502C14.2001 13.6404 13.6404 14.2001 12.9502 14.2002H11.0498C10.3596 14.2001 9.79991 13.6404 9.7998 12.9502V11.0498C9.79991 10.3596 10.3596 9.79991 11.0498 9.7998H12.9502C13.6404 9.79991 14.2001 10.3596 14.2002 11.0498V12.9502ZM20.2002 12.9502C20.2001 13.6404 19.6404 14.2001 18.9502 14.2002H17.0498C16.3596 14.2001 15.7999 13.6404 15.7998 12.9502V11.0498C15.7999 10.3596 16.3596 9.79991 17.0498 9.7998H18.9502C19.6404 9.79991 20.2001 10.3596 20.2002 11.0498V12.9502ZM8.2002 6.9502C8.20009 7.6404 7.6404 8.20009 6.9502 8.2002H5.0498C4.3596 8.20009 3.79991 7.6404 3.7998 6.9502V5.0498C3.79991 4.3596 4.3596 3.79991 5.0498 3.7998H6.9502C7.6404 3.79991 8.20009 4.3596 8.2002 5.0498V6.9502ZM14.2002 6.9502C14.2001 7.6404 13.6404 8.20009 12.9502 8.2002H11.0498C10.3596 8.20009 9.79991 7.6404 9.7998 6.9502V5.0498C9.79991 4.3596 10.3596 3.79991 11.0498 3.7998H12.9502C13.6404 3.79991 14.2001 4.3596 14.2002 5.0498V6.9502ZM20.2002 6.9502C20.2001 7.6404 19.6404 8.20009 18.9502 8.2002H17.0498C16.3596 8.20009 15.7999 7.6404 15.7998 6.9502V5.0498C15.7999 4.3596 16.3596 3.79991 17.0498 3.7998H18.9502C19.6404 3.79991 20.2001 4.3596 20.2002 5.0498V6.9502Z" fill="#108389"/>
</svg>
