<svg width="41" height="40" viewBox="0 0 41 40" fill="none" xmlns="http://www.w3.org/2000/svg">
<g clip-path="url(#clip0_656_4849)">
<path d="M16.2014 18.3813C16.5779 17.7028 16.8117 16.9334 16.8117 16.1033C16.8117 13.4968 14.6916 11.3779 12.0863 11.3779C9.48105 11.3779 7.36096 13.498 7.36096 16.1033C7.36096 16.9321 7.5947 17.7028 7.97121 18.3813C6.32113 18.7262 5.07788 20.1906 5.07788 21.9417V26.3955C5.07788 27.0942 5.64391 27.6589 6.34134 27.6589H17.8313C18.5287 27.6589 19.0947 27.0942 19.0947 26.3955V21.9417C19.0947 20.1893 17.8515 18.7262 16.2014 18.3813ZM12.0863 13.9049C13.298 13.9049 14.2847 14.8916 14.2847 16.1033C14.2847 17.3149 13.298 18.3017 12.0863 18.3017C10.8747 18.3017 9.88789 17.3149 9.88789 16.1033C9.88789 14.8916 10.8747 13.9049 12.0863 13.9049ZM16.5678 25.132H7.60481V21.9417C7.60481 21.3277 8.10514 20.8286 8.71918 20.8286H15.4547C16.0688 20.8286 16.5678 21.3277 16.5678 21.9417V25.132Z" fill="#C1BFB8"/>
<path d="M34.9424 5H5.05512C2.26792 5 0 7.26918 0 10.0564V29.9673C0 32.7558 2.26792 35.0237 5.05512 35.0237H34.9424C37.7308 35.0237 40 32.7558 40 29.9673V10.0564C40 7.26918 37.7308 5 34.9424 5ZM37.4731 29.966C37.4731 31.3609 36.3385 32.4955 34.9424 32.4955H5.05512C3.66025 32.4955 2.52693 31.3609 2.52693 29.966V10.0564C2.52693 8.66152 3.66025 7.52693 5.05512 7.52693H34.9424C36.3372 7.52693 37.4731 8.66026 37.4731 10.0564V29.966Z" fill="#C1BFB8"/>
<path d="M34.0111 15.6351H21.7302V18.162H34.0111V15.6351Z" fill="#C1BFB8"/>
<path d="M29.2794 21.2272H21.7302V23.7541H29.2794V21.2272Z" fill="#C1BFB8"/>
</g>
<defs>
<clipPath id="clip0_656_4849">
<rect width="40" height="40" fill="white" transform="translate(0.5)"/>
</clipPath>
</defs>
</svg>
