<svg width="40" height="36" viewBox="0 0 40 36" fill="none" xmlns="http://www.w3.org/2000/svg">
<path d="M39.3839 29.0076L24.0312 2.34191C23.6245 1.63033 23.0375 1.03902 22.3296 0.627794C21.6218 0.216566 20.8181 0 20 0C19.1819 0 18.3782 0.216566 17.6704 0.627794C16.9625 1.03902 16.3755 1.63033 15.9688 2.34191L0.61613 29.0076C0.210859 29.717 -0.00159067 30.5206 8.96691e-06 31.338C0.0016086 32.1555 0.217201 32.9582 0.625246 33.666C1.03329 34.3738 1.6195 34.9619 2.32529 35.3714C3.03109 35.781 3.83175 35.9977 4.64729 36H35.3527C36.1682 35.9977 36.9689 35.781 37.6747 35.3714C38.3805 34.9619 38.9667 34.3738 39.3748 33.666C39.7828 32.9582 39.9984 32.1555 40 31.338C40.0016 30.5206 39.7891 29.717 39.3839 29.0076ZM36.9109 32.2316C36.7564 32.5088 36.53 32.739 36.2557 32.8979C35.9815 33.0568 35.6695 33.1384 35.3527 33.1343H4.64729C4.33053 33.1384 4.01853 33.0568 3.74426 32.8979C3.46999 32.739 3.24365 32.5088 3.08915 32.2316C2.92799 31.9608 2.84291 31.6513 2.84291 31.336C2.84291 31.0207 2.92799 30.7113 3.08915 30.4405L18.4562 3.77478C18.6105 3.50052 18.8348 3.2723 19.1061 3.1135C19.3773 2.9547 19.6859 2.87101 20 2.87101C20.3141 2.87101 20.6227 2.9547 20.8939 3.1135C21.1652 3.2723 21.3895 3.50052 21.5438 3.77478L36.9109 30.4405C37.072 30.7113 37.1571 31.0207 37.1571 31.336C37.1571 31.6513 37.072 31.9608 36.9109 32.2316ZM18.5705 22.8176V10.7099C18.5705 10.3298 18.7211 9.96539 18.9892 9.69667C19.2573 9.42796 19.6209 9.27699 20 9.27699C20.3791 9.27699 20.7427 9.42796 21.0108 9.69667C21.2789 9.96539 21.4295 10.3298 21.4295 10.7099V22.8176C21.4295 23.1976 21.2789 23.5621 21.0108 23.8308C20.7427 24.0995 20.3791 24.2505 20 24.2505C19.6209 24.2505 19.2573 24.0995 18.9892 23.8308C18.7211 23.5621 18.5705 23.1976 18.5705 22.8176ZM22.1871 28.1192C22.1871 28.5528 22.0588 28.9767 21.8185 29.3372C21.5782 29.6977 21.2366 29.9787 20.837 30.1446C20.4373 30.3106 19.9976 30.354 19.5733 30.2694C19.1491 30.1848 18.7593 29.976 18.4535 29.6694C18.1476 29.3628 17.9393 28.9722 17.8549 28.5469C17.7705 28.1217 17.8138 27.6809 17.9794 27.2803C18.1449 26.8797 18.4252 26.5373 18.7849 26.2964C19.1446 26.0555 19.5674 25.9269 20 25.9269C20.5789 25.9307 21.133 26.1629 21.5424 26.5732C21.9517 26.9835 22.1834 27.5389 22.1871 28.1192Z" fill="#C1BFB8"/>
</svg>
