<svg width="49" height="48" viewBox="0 0 49 48" fill="none" xmlns="http://www.w3.org/2000/svg">
<path fill-rule="evenodd" clip-rule="evenodd" d="M40.3067 16.5254C40.3067 27.83 34.3189 38.4497 24.6593 44.3041C14.9998 38.4605 9.01198 27.842 9.01198 16.5254V8.71373L24.6473 3.62594H24.6833L40.3187 8.71373V16.5254H40.3067ZM41.7824 5.40186L25.6432 0.147294C25.5112 0.0992957 25.3672 0.0740967 25.2112 0.0620972C24.7432 -0.0206991 24.5752 -0.0206991 24.1072 0.0620972C23.9632 0.0740967 23.8192 0.110095 23.6992 0.147294L7.5359 5.40186C6.26396 5.82185 5.39999 6.999 5.39999 8.34294V16.5253C5.39999 29.198 12.1678 41.1004 23.0753 47.568C23.0753 47.568 23.0873 47.568 23.0873 47.5812C23.0993 47.5812 23.1113 47.5932 23.1113 47.5932C23.5912 47.856 24.1192 48 24.6592 48C25.1872 48 25.7152 47.856 26.183 47.5932C26.195 47.5812 26.207 47.5812 26.219 47.568L26.231 47.556C37.1386 41.0896 43.9063 29.198 43.9063 16.5133V8.34294C43.9183 6.999 43.0543 5.82185 41.7824 5.40186Z" fill="#242424"/>
<path d="M24.6224 14.3999C24.4223 14.3999 24.2221 14.4749 24.072 14.6081C23.9219 14.7414 23.8218 14.9247 23.7968 15.1163L22.404 19.4062C22.3456 19.5727 22.2455 19.7143 22.1038 19.8143C21.9619 19.9143 21.7951 19.9726 21.62 19.9726H17.0246C16.8496 19.9726 16.6828 20.0309 16.5409 20.1309C16.3992 20.2308 16.2991 20.3724 16.2407 20.539C16.1906 20.7055 16.1824 20.8805 16.2407 21.0388C16.2907 21.2053 16.3992 21.3469 16.5326 21.4469L20.2523 24.0959C20.394 24.1959 20.4941 24.3375 20.5441 24.504C20.5942 24.6623 20.5942 24.8373 20.5441 25.0038L19.1514 29.2937C19.1014 29.4603 19.1096 29.6352 19.1597 29.7935C19.2181 29.9518 19.3182 30.0934 19.4599 30.1933C19.6018 30.2933 19.7686 30.3432 19.9436 30.3516C20.1188 30.3516 20.2856 30.3016 20.4191 30.2016L24.122 27.5527C24.2639 27.4528 24.4307 27.3945 24.6058 27.3945C24.781 27.3945 24.9476 27.4444 25.0895 27.5527L28.7924 30.2016C28.9343 30.3016 29.1011 30.3599 29.2762 30.3599C29.4514 30.3599 29.6182 30.31 29.7599 30.2016C29.9017 30.1017 30.0018 29.9601 30.0601 29.7935C30.1102 29.6268 30.1102 29.452 30.0601 29.2937L28.6674 25.0038C28.609 24.8455 28.609 24.6706 28.6674 24.504C28.7174 24.3375 28.8258 24.1959 28.9676 24.0959L32.6706 21.4469C32.8123 21.3469 32.9124 21.1971 32.9624 21.0388C33.0125 20.8722 33.0125 20.6973 32.9624 20.539C32.9124 20.3724 32.804 20.2308 32.6622 20.1309C32.5205 20.0309 32.3537 19.9726 32.1785 19.9726H27.5998C27.4247 19.9726 27.2579 19.9143 27.1162 19.8143C26.9743 19.7143 26.8742 19.5727 26.8158 19.4145L25.4482 15.1163C25.4231 14.9164 25.323 14.7331 25.1729 14.6081C25.0228 14.4749 24.8226 14.3999 24.6224 14.3999Z" fill="#FEEB29" stroke="#242424" stroke-width="2.4"/>
</svg>
