<svg width="49" height="48" viewBox="0 0 49 48" fill="none" xmlns="http://www.w3.org/2000/svg">
<rect x="15" y="28" width="21" height="17" fill="#FEEB29"/>
<path fill-rule="evenodd" clip-rule="evenodd" d="M24.564 0C31.824 0 38.628 3.30001 43.7281 9.30002C44.3281 9.99603 44.2441 11.04 43.548 11.64C43.236 11.904 42.852 12.0348 42.468 12.0348C42 12.0348 41.532 11.8308 41.208 11.448C36.744 6.21602 30.828 3.32401 24.564 3.32401C18.3 3.32401 12.384 6.20402 7.93196 11.448C7.34396 12.144 6.28795 12.24 5.59195 11.64C4.88395 11.04 4.79995 9.99603 5.39995 9.30002C10.5 3.30001 17.304 0 24.564 0ZM10.6562 14.3043C14.4482 9.91232 19.3922 7.48711 24.5642 7.48711C29.7363 7.48711 34.6803 9.91232 38.4723 14.3043C39.0723 15.0003 39.0003 16.0443 38.3043 16.6443C37.9923 16.9191 37.6083 17.0523 37.2243 17.0523C36.7563 17.0523 36.2883 16.8603 35.9643 16.4751C32.8083 12.8271 28.7523 10.8123 24.5642 10.8123C20.3762 10.8123 16.3202 12.8271 13.1642 16.4751C12.5642 17.1711 11.5202 17.2443 10.8242 16.6443C10.1282 16.0443 10.0562 15.0003 10.6562 14.3043ZM34.0441 41.652C34.0441 43.152 32.8201 44.376 31.3201 44.376H17.8081C16.3081 44.376 15.0841 43.152 15.0841 41.652V31.86C15.0841 30.42 16.2121 29.256 17.6161 29.16C17.6881 29.172 17.7721 29.1828 17.8441 29.1828C17.9761 29.1828 18.1081 29.172 18.2281 29.1348H30.8881C31.0081 29.16 31.1401 29.1828 31.2721 29.1828C31.3528 29.1828 31.4224 29.1728 31.5022 29.1614L31.5022 29.1614L31.5121 29.16C32.9161 29.268 34.0441 30.4308 34.0441 31.86V41.652ZM24.5641 18.9239C27.4561 18.9239 29.4721 20.9159 29.4721 23.7599V25.5347H19.6681V23.7599C19.6561 20.9039 21.6721 18.9239 24.5641 18.9239ZM33.0841 25.8V23.748C33.0841 18.924 29.4121 15.3 24.5521 15.3C19.6921 15.3 16.0321 18.9348 16.0321 23.748V25.8C13.3921 26.568 11.4601 28.9788 11.4601 31.86V41.6521C11.4601 45.1561 14.3041 48.0001 17.8081 48.0001H31.3201C34.8241 48.0001 37.6682 45.1561 37.6682 41.6521V31.86C37.6682 28.992 35.7241 26.5788 33.0841 25.8ZM24.5645 32.2555C26.3045 32.2555 27.1805 33.5407 27.1805 34.8235C27.1805 36.0967 26.5325 36.7315 26.2445 36.9715C26.0405 37.1515 25.9565 37.4155 26.0525 37.6675L27.1325 40.3795C27.2885 40.7755 26.9765 41.2075 26.5325 41.2075H22.6085C22.1645 41.2075 21.8525 40.7875 22.0085 40.3795L23.1005 37.6675C23.1965 37.4275 23.1005 37.1515 22.8965 36.9835C22.5965 36.7447 21.9485 36.0967 21.9485 34.8235C21.9485 33.5407 22.8365 32.2555 24.5645 32.2555Z" fill="#242424"/>
<mask id="mask0_4294_1508" style="mask-type:luminance" maskUnits="userSpaceOnUse" x="5" y="0" width="40" height="48">
<path fill-rule="evenodd" clip-rule="evenodd" d="M24.564 0C31.824 0 38.628 3.30001 43.7281 9.30002C44.3281 9.99603 44.2441 11.04 43.548 11.64C43.236 11.904 42.852 12.0348 42.468 12.0348C42 12.0348 41.532 11.8308 41.208 11.448C36.744 6.21602 30.828 3.32401 24.564 3.32401C18.3 3.32401 12.384 6.20402 7.93196 11.448C7.34396 12.144 6.28795 12.24 5.59195 11.64C4.88395 11.04 4.79995 9.99603 5.39995 9.30002C10.5 3.30001 17.304 0 24.564 0ZM10.6562 14.3043C14.4482 9.91232 19.3922 7.48711 24.5642 7.48711C29.7363 7.48711 34.6803 9.91232 38.4723 14.3043C39.0723 15.0003 39.0003 16.0443 38.3043 16.6443C37.9923 16.9191 37.6083 17.0523 37.2243 17.0523C36.7563 17.0523 36.2883 16.8603 35.9643 16.4751C32.8083 12.8271 28.7523 10.8123 24.5642 10.8123C20.3762 10.8123 16.3202 12.8271 13.1642 16.4751C12.5642 17.1711 11.5202 17.2443 10.8242 16.6443C10.1282 16.0443 10.0562 15.0003 10.6562 14.3043ZM34.0441 41.652C34.0441 43.152 32.8201 44.376 31.3201 44.376H17.8081C16.3081 44.376 15.0841 43.152 15.0841 41.652V31.86C15.0841 30.42 16.2121 29.256 17.6161 29.16C17.6881 29.172 17.7721 29.1828 17.8441 29.1828C17.9761 29.1828 18.1081 29.172 18.2281 29.1348H30.8881C31.0081 29.16 31.1401 29.1828 31.2721 29.1828C31.3528 29.1828 31.4224 29.1728 31.5022 29.1614L31.5022 29.1614L31.5121 29.16C32.9161 29.268 34.0441 30.4308 34.0441 31.86V41.652ZM24.5641 18.9239C27.4561 18.9239 29.4721 20.9159 29.4721 23.7599V25.5347H19.6681V23.7599C19.6561 20.9039 21.6721 18.9239 24.5641 18.9239ZM33.0841 25.8V23.748C33.0841 18.924 29.4121 15.3 24.5521 15.3C19.6921 15.3 16.0321 18.9348 16.0321 23.748V25.8C13.3921 26.568 11.4601 28.9788 11.4601 31.86V41.6521C11.4601 45.1561 14.3041 48.0001 17.8081 48.0001H31.3201C34.8241 48.0001 37.6682 45.1561 37.6682 41.6521V31.86C37.6682 28.992 35.7241 26.5788 33.0841 25.8ZM24.5645 32.2555C26.3045 32.2555 27.1805 33.5407 27.1805 34.8235C27.1805 36.0967 26.5325 36.7315 26.2445 36.9715C26.0405 37.1515 25.9565 37.4155 26.0525 37.6675L27.1325 40.3795C27.2885 40.7755 26.9765 41.2075 26.5325 41.2075H22.6085C22.1645 41.2075 21.8525 40.7875 22.0085 40.3795L23.1005 37.6675C23.1965 37.4275 23.1005 37.1515 22.8965 36.9835C22.5965 36.7447 21.9485 36.0967 21.9485 34.8235C21.9485 33.5407 22.8365 32.2555 24.5645 32.2555Z" fill="white"/>
</mask>
<g mask="url(#mask0_4294_1508)">
<rect x="-112.257" y="-113.143" width="274.286" height="274.286" rx="13.7143" fill="#242424"/>
</g>
</svg>
